# xmcd
#
# Track frame offsets:
#	150
#	9995
#	29550
#	46950
#	62025
#	79500
#	93600
#	117300
#	141300
#	164185
#	184575
#	204020
#
# Disc length: 2963 seconds
#
# Revision: 1
# Processed by: cddbd v1.5.2PL0 Copyright (c) Steve Scherf et al.
# Submitted via: audiograbber 1.83.01
#
DISCID=9f0b910c
DTITLE=Doerpfeld Irene - You Know Me
DYEAR=1994
DGENRE=Country
TTITLE0=I'm only one of a million
TTITLE1=You know me from inside and out
TTITLE2=Meine Hand in deiner Hand
TTITLE3=Ich kenne den Plan nicht
TTITLE4=I'ts not what I do
TTITLE5=Wenn du glaubst
TTITLE6=No one like you
TTITLE7=How could I resist
TTITLE8=Mary's song
TTITLE9=Let it flow
TTITLE10=Wie gut dass ich nicht Gott bin
TTITLE11=Be my source
EXTD=
EXTT0=
EXTT1=
EXTT2=
EXTT3=
EXTT4=
EXTT5=
EXTT6=
EXTT7=
EXTT8=
EXTT9=
EXTT10=
EXTT11=
PLAYORDER=
